<?xml version="1.0" encoding="UTF-8"?>
<svg version="1.1" viewBox="0 0 2048 821" width="379" height="152" xmlns="http://www.w3.org/2000/svg">
<path transform="translate(0)" d="m0 0h2048v821h-2048z" fill="#FEFEFE"/>
<path transform="translate(940,107)" d="m0 0h23l7 4 7 7 4 9 1 4v13l-3 10-7 8-10 5-7 1h-19l-1-1-1-10v-38l1-11z" fill="#A0144B"/>
<path transform="translate(765,107)" d="m0 0h20l8 4 5 5 4 5 3 12-1 16-5 9-6 5-8 4-11 1h-12l-4-1-1-3v-55l1-1z" fill="#A0144B"/>
<path transform="translate(954,464)" d="m0 0h28l9 5 7 10 2 7v14l-2 8-6 9-10 6-5 1h-22l-2-3-1-12v-44z" fill="#A0144B"/>
<path transform="translate(558,226)" d="m0 0h28l10 8 6 9 2 10-1 14-4 8-7 7-5 3-13 2h-14l-3-1-1-2v-47l1-10z" fill="#A0144B"/>
<path transform="translate(209,107)" d="m0 0h19l5 3 4 6 1 3v12l-3 5v2l4 2 3 5v11l-4 6-5 4-8 2h-18l-5-2-1-3v-50l1-5z" fill="#A0144B"/>
<path transform="translate(439,582)" d="m0 0h10l5 3 6 7 3 9 1 16-2 11-6 10-5 4-3 1h-13l-6-3-6-8-3-12v-14l3-12 7-8 5-3z" fill="#A0144B"/>
<path transform="translate(1399,107)" d="m0 0h17l5 2 4 5 2 6v9l-3 9 5 4 2 5v8l-3 6-6 5-11 2h-15l-6-2v-58z" fill="#A0144B"/>
<path transform="translate(1370,582)" d="m0 0h11l7 2 4 5 2 4 1 8-3 10v3l5 4 1 2v13l-5 6-6 3-5 1h-21l-3-4-1-16v-34l2-6z" fill="#A0144B"/>
<path transform="translate(1684,463)" d="m0 0h9l6 3 6 7 3 12v16l-3 12-5 7-6 4-11 1-7-2-8-9-3-12v-12l2-13 4-6 7-6z" fill="#A0144B"/>
<path transform="translate(1632,464)" d="m0 0h14l6 4 5 8 2 14v9l-2 12-4 6-7 6-2 1h-15l-7-5-5-10-1-4v-21l2-8 9-10z" fill="#A0144B"/>
<path transform="translate(1061,583)" d="m0 0h10l9 23 11 31 1 5-1 1h-6l-3-3-4-12-1-1h-23l-2 1-4 12-2 2-15 1h-25l-2-5-1-54h10l1 52 26 1 3-8 7-20z" fill="#A0144B"/>
<path transform="translate(465,345)" d="m0 0h9l5 2 13 29 6 14 1 1 10-25 9-20 2-1h11l1 3v56l-1 1h-8l-1-49-5 12-11 26-5 10-4 2-3-1-9-20-11-26-2-4 1 12v38h-7l-1-1-1-29v-14z" fill="#A0144B"/>
<path transform="translate(814,464)" d="m0 0h12l8 16 12 29v2h2l1-5 9-22 8-18 3-2h10l1 2v57l-1 1h-7l-1-48-8 16-11 27-2 4-7 1-3-4-12-31-6-15-1 49-1 1h-7v-59z" fill="#A0144B"/>
<path transform="translate(135,464)" d="m0 0h56l4 9 12 37 1 3h2l3-11 12-36 3-2 7 1-3 10-15 40-4 8h-10l-4-9-9-26-7-18-3-1-2 1-15 1-1 10-1 43-9-1-1-52-15-1-2-5z" fill="#A0144B"/>
<path transform="translate(1494,345)" d="m0 0h22l6 4 4 5 2 6v6l-5 6-5 2 8 16 6 13v2h-9l-3-5-8-18-2-3h-12l1 25-1 1h-8l-1-6v-53z" fill="#A0144B"/>
<path transform="translate(405,107)" d="m0 0h17l6 2 7 8 1 3v9l-5 6-3 2 1 4 10 21 1 5h-10l-8-20-3-5-9-1h-3v26l-6 1-3-1v-59z" fill="#A0144B"/>
<path transform="translate(311,345)" d="m0 0h25l6 5 3 5 1 10-3 6-4 3h-2l13 27v4h-8l-8-15-5-10-1-1h-11l1 25-1 1h-7l-1-1-1-7v-51z" fill="#A0144B"/>
<path transform="translate(364,582)" d="m0 0 13 1 7 4 4 8v9l-5 6-4 2 2 5 8 16 3 10h-7l-3-2-8-19-3-5h-11v25l-2 1h-6l-2-1v-58l1-1z" fill="#A0144B"/>
<path transform="translate(1062,464)" d="m0 0h27l7 8 2 7-1 9-5 4-3 2 8 16 5 11v3h-8l-3-4-8-18-1-4h-12l-1 1v25h-7l-2-1-1-30v-15l1-13z" fill="#A0144B"/>
<path transform="translate(314,464)" d="m0 0h23l6 3 5 6 1 3v9l-6 7-3 3 4 6 8 18-1 5h-7l-6-13-5-11v-2l-13-1v26l-1 1h-7l-1-1-1-50v-7z" fill="#A0144B"/>
<path transform="translate(1581,226)" d="m0 0h20l4 2 5 7 2 6-1 8-8 8 6 10 7 17v2h-9l-4-9-8-16-1-1h-8l-3 1v25h-8l-1-1-1-44 1-14z" fill="#A0144B"/>
<path transform="translate(611,107)" d="m0 0h16l5 2 7 8 1 10-4 7-4 3 1 4 6 12 5 14-7 1-3-2-7-16-4-8-8-1-4 1v24l-1 1h-7l-1-1v-58z" fill="#A0144B"/>
<path transform="translate(184,226)" d="m0 0h20l5 2 5 6 2 6v7l-2 5-7 4 9 17 4 9-1 5-7-1-8-16-5-9-1-1h-8l-2 1v25h-9l-1-20v-22l1-17z" fill="#A0144B"/>
<path transform="translate(596,345)" d="m0 0h10l4 4 12 21 7 12 4 6v-42l1-1h7l1 1v59h-9l-5-6-9-15-13-23-1-2-1 46h-8l-1-1v-58z" fill="#A0144B"/>
<path transform="translate(204,345)" d="m0 0h23l7 4 5 8 1 10-4 9-7 6-9 2h-10v21l-4 1-4-1-1-3v-56z" fill="#A0144B"/>
<path transform="translate(1586,588)" d="m0 0h8l6 3 5 7 2 8v11l-2 9-3 5-5 5-7 2-9-1-6-4-4-6-2-10 1-14 4-8 8-6z" fill="#FEFEFE"/>
<path transform="translate(420,464)" d="m0 0h11l4 5 14 25 8 14 1-4v-39l1-1h6l2 1v58l-1 1h-8l-5-5-13-22-12-22 1 48-2 1h-7l-1-15v-35z" fill="#A0144B"/>
<path transform="translate(614,588)" d="m0 0 9 1 7 6 3 6 1 7-1 16-5 8-5 4-6 2-9-1-6-4-4-6-2-7v-13l4-11 8-7z" fill="#FEFEFE"/>
<path transform="translate(1261,113)" d="m0 0h11l6 4 5 8 1 4v16l-3 9-4 5-6 3h-11l-6-3-5-6-2-6v-19l4-8 8-6z" fill="#FEFEFE"/>
<path transform="translate(1059,232)" d="m0 0h13l7 6 3 7 1 6v9l-2 10-6 8-6 3h-12l-8-7-3-7v-20l3-7 7-7z" fill="#FEFEFE"/>
<path transform="translate(1398,226)" d="m0 0h7l3 1 14 25 10 17 1 1v-43l7-1 2 1v58l-2 2-9-2-10-16-10-18-6-10-1-1v46h-9v-59z" fill="#A0144B"/>
<path transform="translate(679,469)" d="m0 0 10 2 5 5 3 5 1 4v19l-4 8-6 5-6 2h-7l-6-3-6-7-2-8v-14l4-10 7-6z" fill="#FEFEFE"/>
<path transform="translate(426,232)" d="m0 0h11l6 3 4 5 2 4 1 7v10l-2 9-4 6-5 4-4 1h-10l-6-4-5-7-1-4v-19l4-8 6-6z" fill="#FEFEFE"/>
<path transform="translate(1306,108)" d="m0 0h12l10 16 9 17 7 11v-44h9v59h-10l-4-5-13-22-11-20v47h-9l-1-1v-57z" fill="#A0144B"/>
<path transform="translate(1114,582)" d="m0 0 13 1 7 4 4 6 1 4v10l-4 7-7 6-2 1-16 1 1 20-8 1-2-6v-53l1-1z" fill="#A0144B"/>
<path transform="translate(1132,470)" d="m0 0h12l5 3 4 5 2 5 1 6v11l-3 10-4 5-6 3h-13l-7-5-4-8-1-6v-11l3-8 7-8z" fill="#FEFEFE"/>
<path transform="translate(726,351)" d="m0 0h11l6 4 4 7 1 4v18l-3 8-8 7-4 1h-7l-7-3-6-7-2-9v-13l3-8 5-5z" fill="#FEFEFE"/>
<path transform="translate(310,588)" d="m0 0 9 2 5 5 3 5 1 4v18l-3 7-4 5-5 3h-13l-6-4-4-5-2-6v-18l4-8 8-6z" fill="#FEFEFE"/>
<path transform="translate(1315,345)" d="m0 0h6l5 5 10 18 11 19 2 3v-44h9v56l-2 3h-8l-7-9-16-29-5-9-1 47h-7l-2-1 1-58z" fill="#A0144B"/>
<path transform="translate(1110,226)" d="m0 0h5l6 9 12 21 9 15v-44l7-1 1 1 1 21v37l-1 2-9-1-7-10-9-16-10-18-1-3-1 28v18l-1 1h-8v-59z" fill="#A0144B"/>
<path transform="translate(657,583)" d="m0 0h10l6 9 15 27 6 9v-45h8v59l-1 1-9-1-7-10-13-24-7-13-1 47-5 1-4-2v-56z" fill="#A0144B"/>
<path transform="translate(426,345)" d="m0 0h7l3 5 12 31 7 20v4h-9l-3-9-2-7-25 1-6 14-2 1h-6l-1-2 9-24 10-25 4-8z" fill="#A0144B"/>
<path transform="translate(913,464)" d="m0 0h9l9 21 9 25 4 12v2h-9l-2-2-4-13-5-1-20 1-3 8-3 6-7 1-1-2 11-31 10-25z" fill="#A0144B"/>
<path transform="translate(268,345)" d="m0 0h8l3 3 10 27 9 26v4h-9l-5-15h-25l-5 13-2 2h-6l-2-2 6-14 12-32 5-11z" fill="#A0144B"/>
<path transform="translate(1584,345)" d="m0 0h8l7 14 13 36 2 6v4h-8l-3-5-3-11h-26l-3 12-3 4h-6l-1-2 11-32 10-25z" fill="#A0144B"/>
<path transform="translate(925,226)" d="m0 0h7l3 4 10 26 9 27-1 4-8-1-5-15h-25l-6 15h-6l-2-1 3-9 9-26 9-22z" fill="#A0144B"/>
<path transform="translate(1450,345)" d="m0 0h9l5 12 11 29 5 15v4h-8l-4-9-2-6-25-1-3 9-3 7h-7l-1-3 6-16 10-27z" fill="#A0144B"/>
<path transform="translate(564,107)" d="m0 0h6l5 8 11 29 7 20-1 4h-6l-3-3-5-13h-24l-4 9-3 6h-7l1-6 11-31 9-21z" fill="#A0144B"/>
<path transform="translate(1318,583)" d="m0 0h9l5 10 10 27 6 17 1 5-2 1h-6l-2-1-5-15-25 1-5 13-1 1h-8l3-9 11-30 8-19z" fill="#A0144B"/>
<path transform="translate(475,226)" d="m0 0h8l7 11 9 16 10 16 1-1v-41l1-1h6l1 1v60l-9-1-7-9-13-24-8-14-1 47h-8l-1-8 1-51z" fill="#A0144B"/>
<path transform="translate(1533,227)" d="m0 0h11l10 25 7 19 5 15-5 1-6-2-4-13-1-1h-24l-4 9-3 6h-7l1-6 10-28z" fill="#A0144B"/>
<path transform="translate(734,583)" d="m0 0h9l3 5 10 25 9 26v4h-7l-3-2-4-13-1-1-25 1-5 14h-8l4-13 9-25 8-20z" fill="#A0144B"/>
<path transform="translate(1427,583)" d="m0 0h9l7 16 10 27 4 13v3l-6 1-4-4-4-11-1-1-24 1-3 8-3 6h-7l1-7 12-33 7-17z" fill="#A0144B"/>
<path transform="translate(380,464)" d="m0 0h9l5 12 11 29 5 15v4h-8l-3-7-3-8h-25l-5 13-3 2-6-1 2-6 9-26 11-26z" fill="#A0144B"/>
<path transform="translate(1462,107)" d="m0 0h7l5 11 12 33 4 12v4l-5 1-4-2-5-14h-25l-3 8-2 7h-8l1-7 14-38 5-13z" fill="#A0144B"/>
<path transform="translate(1126,107)" d="m0 0h7l3 4 10 26 9 26-1 5h-6l-3-4-4-12h-25l-3 8-3 7h-6l-1-5 4-10 7-20 10-24z" fill="#A0144B"/>
<path transform="translate(1168,583)" d="m0 0h9l5 10 13 36 3 9v4l-6 1-4-4-3-12h-24l-3 3-4 11-1 1h-8l3-9 11-30 7-18z" fill="#A0144B"/>
<path transform="translate(696,108)" d="m0 0h9l6 12 13 36 3 11h-10l-5-15h-25l-5 14-1 1h-8l10-29 11-27z" fill="#A0144B"/>
<path transform="translate(1638,107)" d="m0 0h7l3 5 10 25 7 20 3 10h-9l-3-5-3-10h-25l-6 15h-6l-1-5 3-6 8-24 9-22z" fill="#A0144B"/>
<path transform="translate(964,583)" d="m0 0h9l5 10 10 27 6 19v4h-7l-3-5-3-11h-25l-4 9-2 6h-9l2-6 12-33 8-19z" fill="#A0144B"/>
<path transform="translate(1669,226)" d="m0 0 8 1 6 12 10 28 6 18v1h-8l-3-3-4-12h-25l-5 14-2 1h-7l10-29 11-27z" fill="#A0144B"/>
<path transform="translate(107,232)" d="m0 0h11l5 2 5 5 3 4 2 8v12l-3 9-4 5-6 3-6 1h-8l-3-1-1-2v-43l1-2z" fill="#FEFEFE"/>
<path transform="translate(106,351)" d="m0 0h12l5 2 7 8 2 4 1 6v9l-2 9-4 6-8 4h-15l-2-2v-43l1-2z" fill="#FEFEFE"/>
<path transform="translate(802,351)" d="m0 0h16l5 3 6 9 1 3v19l-4 8-6 5-2 1h-16l-2-2v-41z" fill="#FEFEFE"/>
<path transform="translate(746,232)" d="m0 0h11l7 3 6 9 2 9v8l-2 9-4 6-7 4h-16l-1-1-1-7v-27l1-12z" fill="#FEFEFE"/>
<path transform="translate(963,470)" d="m0 0h14l6 3 5 6 3 8v15l-3 9-6 5-5 2h-14l-2-2v-44z" fill="#FEFEFE"/>
<path transform="translate(1385,351)" d="m0 0h12l7 3 6 8 2 7v13l-3 10-7 6-4 1h-15l-1-1v-45z" fill="#FEFEFE"/>
<path transform="translate(738,226)" d="m0 0h24l7 4 8 9 3 7 1 5v12l-4 11-9 9-8 3-8 1h-12l-6-1-1-3v-56zm8 6-4 1-1 12v27l1 7 1 1h16l7-4 4-6 2-9v-8l-2-9-6-9-7-3z" fill="#A0144B"/>
<path transform="translate(773,113)" d="m0 0 11 1 8 7 4 10v13l-3 10-7 6-9 2h-9l-2-1v-46z" fill="#FEFEFE"/>
<path transform="translate(1378,345)" d="m0 0h24l8 4 7 8 3 7 1 14-2 11-6 9-10 6-4 1h-24l-2-7v-52zm7 6-3 2v45l1 1h15l7-3 5-6 2-8v-13l-3-9-5-6-7-3z" fill="#A0144B"/>
<path transform="translate(305,582)" d="m0 0h14l7 4 7 7 4 10v17l-4 11-6 7-10 5-11 1-11-3-7-6-5-9-2-9 1-12 3-8 6-8 9-6zm5 6-9 3-6 5-4 8v18l3 8 7 6 2 1h13l7-5 4-7 1-3v-18l-3-8-4-5-8-3z" fill="#A0144B"/>
<path transform="translate(1470,232)" d="m0 0h12l6 3 6 7 2 5 1 6v8l-2 9-7 8-5 2-10 1-6-1-1-2 1-45z" fill="#FEFEFE"/>
<path transform="translate(1463,226)" d="m0 0h24l9 6 6 7 3 8 1 11-2 10-4 8-9 8-6 2h-26l-1-1v-58zm7 6-3 1-1 45 1 2 8 1 11-2 8-7 2-5 1-6v-8l-2-9-6-8-4-3-3-1z" fill="#A0144B"/>
<path transform="translate(944,114)" d="m0 0h17l8 7 3 6 1 5v14l-3 8-6 5-4 2-7 1h-8l-2-2v-44z" fill="#FEFEFE"/>
<path transform="translate(1135,463)" d="m0 0h9l8 3 7 6 5 10 1 5v14l-4 10-8 9-9 4-12 1-10-3-8-8-4-9-1-5v-10l2-9 4-7 9-8 4-2zm-3 7-6 4-6 7-2 7v11l2 9 5 7 5 3h13l7-4 4-6 2-8v-11l-2-9-4-6-3-3-3-1z" fill="#A0144B"/>
<path transform="translate(722,345)" d="m0 0h19l6 4 7 8 3 9v17l-3 9-9 10-7 3-6 1h-8l-10-3-7-7-4-8-1-4v-15l3-10 6-8 8-5zm4 6-9 5-5 8-1 4v13l2 9 7 8 6 2h7l7-3 6-7 2-6v-18l-3-8-4-5-4-2z" fill="#A0144B"/>
<path transform="translate(570,232)" d="m0 0h10l6 3 6 7 2 5 1 7v8l-2 8-7 8-5 2-12 1-4-1v-46z" fill="#FEFEFE"/>
<path transform="translate(678,463)" d="m0 0h7l10 3 7 6 4 8 1 4v18l-3 9-7 8-7 4-10 2-11-1-9-6-5-7-3-11v-12l3-10 6-8 5-4 5-2zm1 6-9 3-6 7-3 8v14l3 10 8 7 3 1h7l8-3 6-7 2-5v-19l-3-8-4-5-4-2z" fill="#A0144B"/>
<path transform="translate(97,345)" d="m0 0h26l8 4 7 9 3 7 1 5v9l-2 9-5 8-7 6-7 3-15 1-9-1-3-2v-57zm9 6-3 1-1 2v43l2 2h15l8-4 4-6 2-9v-9l-2-8-4-6-5-5-4-1z" fill="#A0144B"/>
<path transform="translate(796,345)" d="m0 0h25l6 3 7 7 4 7 2 10-1 11-3 9-8 9-10 4h-25l-1-1v-58zm6 6-2 5v41l2 2h16l6-4 4-5 2-5v-19l-5-10-4-4-3-1z" fill="#A0144B"/>
<path transform="translate(1259,107)" d="m0 0h16l7 4 8 9 3 9v14l-3 10-6 8-5 4-8 3h-13l-8-3-6-5-5-10-1-3v-17l4-11 5-6 8-5zm2 6-9 6-4 6-1 3v19l3 8 7 6 3 1h11l7-4 5-8 1-5v-16l-4-10-6-5-2-1z" fill="#A0144B"/>
<path transform="translate(425,226)" d="m0 0h14l8 3 5 4 5 9 2 12-1 13-5 10-7 6-6 3-6 1h-11l-7-3-5-4-5-8-3-12 1-12 4-10 6-7 7-4zm1 6-5 3-6 7-2 5v19l3 7 5 6 4 2h10l7-3 5-6 2-4 1-7v-10l-2-9-4-6-4-3-3-1z" fill="#A0144B"/>
<path transform="translate(100,226)" d="m0 0h22l8 4 8 9 3 7 1 6v8l-2 9-6 10-9 6-12 2h-9l-8-1-2-2v-57zm7 6-4 1-1 2v43l1 2 3 1h8l9-2 5-4 4-7 1-5v-12l-3-10-4-5-4-3-4-1z" fill="#A0144B"/>
<path transform="translate(611,582)" d="m0 0h11l8 3 7 6 4 8 1 4v18l-4 10-6 7-8 4-4 1h-15l-6-3-7-7-4-9-1-5v-12l4-11 6-8 6-4zm3 6-8 2-7 8-3 9v13l4 11 6 5 6 2 9-1 6-4 4-5 2-4 1-16-2-9-4-6-5-4z" fill="#A0144B"/>
<path transform="translate(1058,226)" d="m0 0h15l7 3 5 5 4 6 2 7v18l-4 10-5 6-9 5-6 1h-10l-8-3-6-5-5-9-1-4v-19l4-9 6-7 7-4zm1 6-5 3-7 8-1 4v20l4 8 7 6h12l7-4 5-7 2-10v-9l-2-9-4-6-5-4z" fill="#A0144B"/>
<path transform="translate(1584,582)" d="m0 0h11l9 3 7 7 4 10v19l-4 11-5 5-5 4-7 2h-15l-8-4-7-8-3-9v-18l3-9 6-7 9-5zm2 6-7 3-6 5-3 7-1 14 2 10 6 8 8 3 9-1 5-3 5-5 2-5 1-7v-11l-3-10-5-6-5-2z" fill="#A0144B"/>
<path transform="translate(832,226)" d="m0 0 8 1v37l-3 11-7 8-5 3-4 1h-11l-8-3-7-8-3-10v-39h10v37l2 9 2 5 5 2h8l8-4 3-9 1-40z" fill="#A0144B"/>
<path transform="translate(1333,227)" d="m0 0h9l1 43 3 7 6 3h7l7-3 3-4 1-3 1-14v-29h9v38l-3 10-4 6-8 5-4 1h-10l-7-2-6-5-4-8-2-10z" fill="#A0144B"/>
<path transform="translate(182,107)" d="m0 0 4 1v37l-3 11-7 8-8 4h-12l-8-3-6-7-3-7-1-7v-35l1-1h8l1 39 2 8 5 5 2 1h9l6-3 3-4 1-5 1-41z" fill="#A0144B"/>
<path transform="translate(1819,464)" d="m0 0h6l1 1 1 25 5-5 11-14 8-7h7l-2 5-12 13-7 9 2 5 10 13 9 12 1 3-5 1-6-4-8-9-11-14h-2l-1 26h-6l-3-3 1-56z" fill="#A0144B"/>
<path transform="translate(1250,345)" d="m0 0h6l1 1 1 41 3 7 4 4 3 1h7l7-3 3-5 1-5 1-40 7-1 2 2-1 41-5 10-6 5-9 3h-10l-8-4-7-9-2-8v-37z" fill="#A0144B"/>
<path transform="translate(995,108)" d="m0 0h9v40l2 7 4 5 2 1h11l6-4 2-3 1-5 1-41h9l-1 43-4 8-8 7-6 2h-13l-6-3-7-8-2-5-1-13v-30z" fill="#A0144B"/>
<path transform="translate(441,588)" d="m0 0 6 1 5 5 2 6 1 8v12l-2 10-4 5-4 2h-7l-6-5-2-5-1-6v-19l3-8 6-5z" fill="#FEFEFE"/>
<path transform="translate(1634,470)" d="m0 0h9l5 6 2 6v25l-4 8-5 3h-8l-5-4-3-8v-26l4-6z" fill="#FEFEFE"/>
<path transform="translate(1687,469)" d="m0 0 6 2 4 5 2 6v24l-3 8-5 4h-9l-6-7-2-7v-22l3-6 4-5z" fill="#FEFEFE"/>
<path transform="translate(1476,464)" d="m0 0h28v5l-1 1-22 1-1 1v19h22v5l-1 1-20 1-1 1v18l25 1 2 4-4 2h-32l-1-1v-58z" fill="#A0144B"/>
<path transform="translate(552,345)" d="m0 0h30l1 2-2 4-25 1 1 19 21 1v5l-1 1-20 1v19l25 1 1 5-1 1h-34l-1-4v-55z" fill="#A0144B"/>
<path transform="translate(160,582)" d="m0 0h8l5 1v5l-5 1-20 1v20h21l2 1-1 4-22 2v18l3 1 22 1 1 5-4 1h-29l-2-2-1-6v-50l2-2z" fill="#A0144B"/>
<path transform="translate(971,345)" d="m0 0h32l1 2-1 3-2 1-24 1v20h22l1 4-1 2-21 1v19l25 1v6h-35v-59z" fill="#A0144B"/>
<path transform="translate(160,345)" d="m0 0h28l1 4-1 2-25 1 1 19 19 1 3 2-1 3-2 1-19 1v19l24 1 1 5-1 1h-33l-1-1v-58z" fill="#A0144B"/>
<path transform="translate(858,345)" d="m0 0h28l-1 6-25 1v20h11l12 1v4l-4 1-18 1v19l24 1 1 5-1 1h-33l-1-1v-58z" fill="#A0144B"/>
<path transform="translate(903,107)" d="m0 0h19v5l-1 1-25 1 1 20 22 1-1 5-22 1v20h25l1 1v5l-18 1h-13l-4-1v-59z" fill="#A0144B"/>
<path transform="translate(1561,464)" d="m0 0h6l3 3 13 38 3 7 1 1 16-48 1-1h7l-1 8-10 27-7 19-3 5-7 1-4-2-10-29-9-25z" fill="#A0144B"/>
<path transform="translate(1154,345)" d="m0 0h29v6l-25 1 1 19 4 1 18 1v4l-5 1-17 1-1 18 1 1 24 1 2 4-2 2h-33l-1-1v-58z" fill="#A0144B"/>
<path transform="translate(625,226)" d="m0 0h25l1 4-2 2-24 1v20l23 1-1 5-21 1-1 20h19l7 1 1 4-1 1-30 1-4-1-1-3v-56z" fill="#A0144B"/>
<path transform="translate(237,226)" d="m0 0h28l1 4-1 2-25 1 1 19 2 1 20 1 1 2-3 3-20 1-1 20h16l10 1 1 4-1 1-31 1-3-1-1-5v-54z" fill="#A0144B"/>
<path transform="translate(1015,464)" d="m0 0h32l1 2-2 3-5 1-19 1-1 1v19h22v5l-1 1-20 1-1 18v2h25l1 5-2 1h-32l-1-1v-58z" fill="#A0144B"/>
<path transform="translate(688,226)" d="m0 0h32v5l-1 1-24 1v20h17l6 1v4l-2 1-20 1-1 7v12l25 1 1 4-1 2h-34v-59z" fill="#A0144B"/>
<path transform="translate(1243,226)" d="m0 0h23l3 1v4l-2 1-19 1-5 1v20h21l1 3-1 2h-21l-1 21h22l5 1 1 3-1 2-30 1-5-1-1-28v-30l1-1z" fill="#A0144B"/>
<path transform="translate(1061,345)" d="m0 0h30l1 3-2 3-25 1 1 20h22v5l-4 1h-18v20l26 1-1 5-1 1h-33v-59z" fill="#A0144B"/>
<path transform="translate(98,464)" d="m0 0h30v5l-26 2v20h23v5l-6 1-16 1v19l26 1v5l-1 1h-30l-4-1v-58z" fill="#A0144B"/>
<path transform="translate(839,107)" d="m0 0 13 1-1 5-17 1-7 1v19l22 1-1 5-20 1-1 1-1 19 26 1 1 4-1 1-19 1h-11l-4-1-1-12v-46l1-1z" fill="#A0144B"/>
<path transform="translate(310,107)" d="m0 0h19l5 1-1 5-25 2v20h22l-1 5-20 1-1 1-1 19 27 1 1 4-1 1-15 1h-17l-3-1v-59z" fill="#A0144B"/>
<path transform="translate(542,583)" d="m0 0h38l1 2-7 14-11 17-12 20 29 1 2 1v4l-10 1h-31l-2-2 7-14 11-17 11-18 1-3h-25l-4-1v-4z" fill="#A0144B"/>
<path transform="translate(469,107)" d="m0 0h14l2 1-1 5-17 1-7 1v19l22 1-1 5-17 1-4 1-1 19 27 1-1 5h-33l-1-1-1-16v-16l1-25 1-1z" fill="#A0144B"/>
<path transform="translate(1771,464)" d="m0 0h30v5l-23 2-1 1-1 13h10l9 2 5 3 4 8v11l-5 8-7 6-4 1h-16l-6-5-1-6 4 1 5 3 9 1 8-3 4-7v-8l-3-5-4-2-18-2-2-2v-24z" fill="#A0144B"/>
<path transform="translate(486,582)" d="m0 0h7l9 3 5 8v11l-7 9 5 2 4 5 1 2v8l-5 8-6 4-3 1h-16l-6-4-3-5v-2l5 1 7 3h11l5-3 2-7-5-9-1-1h-15l-3-2 1-3 17-4 2-2 1-6-3-9-8-1-10 4h-4l1-5 7-5z" fill="#A0144B"/>
<path transform="translate(853,583)" d="m0 0h16l6 4 3 4 1 4v9l-7 8v2l7 3 2 3v11l-4 6-5 4-7 2h-12l-6-3-4-4v-4l5 1 7 3h8l7-3 2-4v-5l-4-6v-2h-14l-5-2-1-3 16-3 4-2 1-2v-9l-2-4-2-1h-10l-8 3h-3l2-5 5-4z" fill="#A0144B"/>
<path transform="translate(265,107)" d="m0 0h10l5 3 5 6-1 3-11-5h-6l-6 5v6l5 5 14 7 5 5 3 7-2 9-5 6-5 3-4 1h-13l-6-4-4-6 2-2 10 5h11l5-4 1-8-4-5-16-8-6-7-1-7 2-7 8-7z" fill="#A0144B"/>
<path transform="translate(1727,464)" d="m0 0h16l6 5 3 5 1 10-3 8-9 12-11 12v2h26l-1 5-1 1h-36l-2-1 2-6 14-15 8-11 2-5v-10l-2-4-5-2-9 2-5 3h-3l1-5 4-4z" fill="#A0144B"/>
<path transform="translate(1114,345)" d="m0 0h12l5 3 4 5v4l-5-2-4-3h-11l-3 3-1 6 1 5 6 2 13 7 5 5 2 3v9l-6 9-7 4-5 1h-9l-6-3-5-5v-4l5 1 4 3 3 1h8l6-3 3-4-1-7-6-5-10-4-9-8-1-3v-8l6-9z" fill="#A0144B"/>
<path transform="translate(1380,464)" d="m0 0h17l7 8 2 5v7l-4 10-9 11-9 9-2 5 21-1 6 1v4l-5 1h-32l-4-2 8-11 8-8 8-10 3-7v-9l-2-5-2-1h-10l-7 4h-4l1-5 5-4z" fill="#A0144B"/>
<path transform="translate(1223,463)" d="m0 0 9 1 8 6 2 5-6-1-6-3h-12l-8 7-3 5-1 4v14l4 10 7 6h13l9-4h3l-1 5-8 5-3 1h-16l-7-4-7-7-4-9-1-5v-8l2-9 5-8 9-8 4-2z" fill="#A0144B"/>
<path transform="translate(1299,226)" d="m0 0h13l7 4 5 6v2l-9-3-4-2h-10l-5 3-6 7-2 6v15l4 10 6 5 2 1h9l11-4 4-1-1 5-7 5-8 2h-11l-6-3-8-7-5-10-1-6v-9l2-8 4-7 7-7z" fill="#A0144B"/>
<path transform="translate(1199,226)" d="m0 0h10l5 2 6 7v2l-6-2-5-2h-8l-5 4-1 4 2 5 17 9 5 4 3 5v10l-3 5-7 6-7 2h-9l-8-4-4-5 1-3 7 3 5 2h9l5-3 2-4v-6l-7-6-14-7-5-6-1-9 3-6 7-6z" fill="#A0144B"/>
<path transform="translate(108,582)" d="m0 0 9 1 7 6 1 6-4-2-4-3-10-1-5 3-1 2v9l5 2 15 8 6 7 1 7-4 9-7 6-3 1h-13l-9-4-4-6v-1l7 1 6 3h10l6-3 1-2v-8l-6-5-14-7-6-7-1-6 3-9 6-5z" fill="#A0144B"/>
<path transform="translate(1511,107)" d="m0 0h8l7 3 4 5v4l-5-2-5-3h-9l-4 3-1 6 2 5 21 11 4 7v9l-4 6-8 6-13 1-8-3-5-4-1-4h6l3 3 3 1h11l5-3 2-4-1-7-5-4-14-7-7-8-1-4 3-9 4-5z" fill="#A0144B"/>
<path transform="translate(296,226)" d="m0 0h15l6 4 4 5v4l-5-2-6-4h-11l-7 4-4 5-2 4-1 6v8l3 12 4 5 7 3h9l9-4 4-1-1 5-5 4-4 2-13 1-10-3-9-9-4-11v-14l3-9 6-8 5-4z" fill="#A0144B"/>
<path transform="translate(567,464)" d="m0 0h14l6 4 3 7-2 1-7-5-9-1-5 3-1 2v8l9 6 12 6 4 5 2 8-3 7-5 5-6 4h-15l-7-4-4-6v-1h5l6 4 3 1h7l6-3 3-4v-6l-2-4-5-2-14-7-5-6-1-8 3-7 4-5z" fill="#A0144B"/>
<path transform="translate(1481,582)" d="m0 0 9 1 7 6 1 5-4-1-7-4h-8l-4 1-1 4v7l5 4 17 9 4 6 1 9-3 6-7 6-5 2h-12l-8-4-4-4v-3h5l5 4 9 1 8-3 2-3v-8l-6-5-12-6-6-5-3-5 1-9 4-6 6-4z" fill="#A0144B"/>
<path transform="translate(105,107)" d="m0 0h9l6 3 4 4 1 6-4-2-6-4h-9l-5 5v7l5 4 14 7 5 4 3 6-1 9-7 8-4 3-5 1h-8l-9-3-6-7v-1l7 1 6 3h10l6-4 1-1v-8l-5-5-16-8-5-6v-11l4-6 6-4z" fill="#A0144B"/>
<path transform="translate(626,463)" d="m0 0 11 1 9 7 1 5-6-2-5-3-4-1h-7l-9 6-5 10v15l3 9 5 5 7 3 9-1 10-4h2l-1 5-8 5-11 2-11-2-9-7-4-6-3-12 2-16 6-9 8-7 4-2z" fill="#A0144B"/>
<path transform="translate(364,107)" d="m0 0h13l7 4 5 6-1 3-13-6h-9l-6 4-6 9-1 4v14l3 9 8 7h11l11-4 3-1-1 4-7 6-8 2h-10l-7-3-8-7-5-10v-19l3-8 8-9z" fill="#A0144B"/>
<path transform="translate(872,226)" d="m0 0h16l8 7 1 5-5-1-4-3-3-1h-11l-8 7-3 7-1 12 2 11 6 8 4 2h9l9-3 5-2-1 5-6 5-8 2h-8l-9-3-6-5-5-8-2-6v-14l3-10 7-9z" fill="#A0144B"/>
<path transform="translate(205,582)" d="m0 0h13l9 7 1 5h-4l-7-4-9-1-8 4-5 6-2 6v15l3 9 5 5 3 2 9 1 9-3 6-3 1 3-5 5-5 3-4 1h-13l-8-4-5-5-5-8-1-4v-18l6-12 7-6z" fill="#A0144B"/>
<path transform="translate(1213,345)" d="m0 0h16l8 6 2 3v3l-6-2-6-3h-11l-5 3-5 6-2 5-1 13 3 12 5 5 6 3h8l10-4 4-1-1 4-7 6-9 2-11-1-6-3-5-5-5-8-2-7v-13l4-11 8-9z" fill="#A0144B"/>
<path transform="translate(1075,107)" d="m0 0h12l8 4 4 5v3l-5-1-6-4h-11l-8 5-4 6-1 3v19l4 9 6 4 3 1h9l8-3 5-1 1 2-5 5-6 3-13 1-8-2-8-6-5-8-2-10 1-14 5-10 7-7z" fill="#A0144B"/>
<path transform="translate(348,226)" d="m0 0h15l9 7 1 5-6-2-6-3h-11l-6 4-4 5-3 10v9l3 11 3 3v2l6 3h10l9-3 5-2-1 5-9 6-6 1h-9l-8-3-8-8-4-9-1-4v-14l3-8 8-10z" fill="#A0144B"/>
<path transform="translate(1532,582)" d="m0 0h9l7 3 6 5 1 4-6-1-8-4h-8l-8 5-4 5-2 5v17l3 8 5 5 3 2h13l9-4h3l-2 5-8 5-3 1h-14l-8-4-7-7-3-6-2-8 1-15 6-11 9-7z" fill="#A0144B"/>
<path transform="translate(1586,107)" d="m0 0h14l5 3 5 5 1 4-6-1-8-4h-9l-6 4-5 8-1 3v18l4 9 5 4 2 1h10l9-3 5-1-2 5-5 4-8 2h-9l-9-3-5-4-6-10-2-8v-8l3-12 6-8 6-5z" fill="#A0144B"/>
<path transform="translate(268,464)" d="m0 0h32v5l-4 1-21 1 1 19 22 1v5l-2 1-20 1-1 25-1 1h-7l-1-1v-58z" fill="#A0144B"/>
<path transform="translate(1273,463)" d="m0 0h8l5 1 7 7-1 4h-3l-3-2v-2l-4-1h-8l-9 4-6 9-1 4v13l3 10 4 5 8 3 10-1 8-4h3l-1 4-8 6-4 1h-15l-6-3-5-4-5-8-2-7v-13l2-8 6-9 7-6 4-2z" fill="#A0144B"/>
<path transform="translate(504,463)" d="m0 0 11 1 8 6 1 1v5l-11-5-9-1-7 3-6 9-2 11 1 10 3 8 6 6 3 1h8l9-3 5-2-1 5-7 5-3 1h-15l-7-3-8-9-4-13v-8l2-9 6-10 7-6z" fill="#A0144B"/>
<path transform="translate(981,226)" d="m0 0h14l6 4 4 4v4l-6-2-6-3h-11l-8 7-3 7-1 5v10l3 10 5 6 4 2h10l10-4 3-1-1 5-6 5-9 2-12-1-6-4-7-8-3-7-1-6v-10l3-10 7-9 8-5z" fill="#A0144B"/>
<path transform="translate(1183,107)" d="m0 0h13l9 6 2 2v4l-5-1-6-4h-11l-8 5-4 6-2 8 1 14 4 9 5 4 3 1h10l10-4h4l-2 4-5 4-4 2-12 1-9-2-8-7-5-8-1-4v-19l5-10 7-7z" fill="#A0144B"/>
<path transform="translate(814,583)" d="m0 0h5l1 1 1 51 1 1 9 1 2 4-2 2h-31l-4-2v-3l15-2-1-42-8 5h-5l-1-2 6-7 9-6z" fill="#A0144B"/>
<path transform="translate(242,582)" d="m0 0h32l3 1v5l-4 1-15 1v52l-1 1h-6l-2-1-1-52-5-1-10 1-2-2v-4l2-1z" fill="#A0144B"/>
<path transform="translate(1298,464)" d="m0 0h44v5l-2 1-17 1v52l-1 1h-8l-1-54h-17l-1-4z" fill="#A0144B"/>
<path transform="translate(914,345)" d="m0 0h45l2 5-1 1-18 1-1 53h-8l-1-1-1-52-16-1-2-5z" fill="#A0144B"/>
<path transform="translate(1512,464)" d="m0 0h45l2 4-4 2-16 1-1 52-1 1h-7l-1-1v-53h-16l-3-3v-2z" fill="#A0144B"/>
<path transform="translate(1421,464)" d="m0 0h38l-2 10-11 25-10 23-2 2h-7l-1-4 9-21 10-21 4-8h-29l-2-1v-4z" fill="#A0144B"/>
<path transform="translate(1247,583)" d="m0 0h46l-1 5-17 2-1 52h-9l-1-52-3-1-14-1-1-4z" fill="#A0144B"/>
<path transform="translate(655,345)" d="m0 0h41l1 5-1 1-16 1-2 53h-8l-1-53-17-1-2-4z" fill="#A0144B"/>
<path transform="translate(356,345)" d="m0 0h43l1 4-2 2-13 1-3 1-1 52h-8l-1-54h-17l-1-5z" fill="#A0144B"/>
<path transform="translate(498,107)" d="m0 0h24l16 1-1 5-8 1h-10l-1 53h-8l-1-52-1-1-16-1v-5z" fill="#A0144B"/>
<path transform="translate(1016,346)" d="m0 0h9l1 52 22 1v5l-4 2h-24l-3-1-1-2z" fill="#A0144B"/>
<path transform="translate(742,464)" d="m0 0h7l2 1v56l-2 3h-6l-2-1v-58z" fill="#A0144B"/>
<path transform="translate(154,227)" d="m0 0h9v59h-9z" fill="#A0144B"/>
<path transform="translate(1547,107)" d="m0 0 6 1v59h-8l-1-1v-51l1-7z" fill="#A0144B"/>
<path transform="translate(1627,227)" d="m0 0h9v53l1 5-1 1h-8l-1-3z" fill="#A0144B"/>
<path transform="translate(656,108)" d="m0 0h8v59l-8 1-1-1-1-7v-51z" fill="#A0144B"/>
<path transform="translate(925,583)" d="m0 0h7v44l-2 11-5 4-11 1-5-2v-3l13-3 1-1 1-50z" fill="#A0144B"/>
<path transform="translate(1219,107)" d="m0 0h5l1 1 1 59-5 1-4-1-1-9v-30l1-20z" fill="#A0144B"/>
<path transform="translate(385,226)" d="m0 0 6 1 1 4-1 56-8-1-1-11v-22l1-26z" fill="#A0144B"/>
<path transform="translate(536,464)" d="m0 0h6l1 1 1 36-1 23-4 1-4-2v-58z" fill="#A0144B"/>
<path transform="translate(213,351)" d="m0 0h11l5 5 1 2v13l-4 5-6 2h-8l-2-2v-23z" fill="#FEFEFE"/>
<path transform="translate(1111,589)" d="m0 0h12l5 3 3 7v7l-3 6-6 3h-11l-1-1v-24z" fill="#FEFEFE"/>
<path transform="translate(1017,226)" d="m0 0h6l1 1 1 59-6 1-3-1v-59z" fill="#A0144B"/>
<path transform="translate(1545,345)" d="m0 0h5v60h-7l-1-4v-55z" fill="#A0144B"/>
<path transform="translate(1405,140)" d="m0 0h10l4 1 3 7v9l-3 3-8 2h-8l-4-1-1-7 1-12z" fill="#FEFEFE"/>
<path transform="translate(1368,616)" d="m0 0h18l4 8-1 9-4 3-4 1h-12l-3-2v-17z" fill="#FEFEFE"/>
<path transform="translate(218,140)" d="m0 0h8l5 2 2 5v10l-3 3-7 2h-9l-4-2-1-6 1-11 1-2z" fill="#FEFEFE"/>
<path transform="translate(1585,232)" d="m0 0h12l5 5 1 8-3 6-2 2-11 1-4-1-1-2v-16z" fill="#FEFEFE"/>
<path transform="translate(616,113)" d="m0 0h7l5 2 2 4v10l-4 5-14 1-2-2v-18z" fill="#FEFEFE"/>
<path transform="translate(1368,589)" d="m0 0h14l3 3 1 3v11l-3 3-4 1h-11l-2-3v-16z" fill="#FEFEFE"/>
<path transform="translate(1405,113)" d="m0 0h7l5 3 2 6-1 10-3 2-14 1-2-1v-19z" fill="#FEFEFE"/>
<path transform="translate(1071,470)" d="m0 0h14l4 7-1 9-4 4-4 1h-9l-2-1-1-3 1-15z" fill="#FEFEFE"/>
<path transform="translate(1504,351)" d="m0 0h7l5 2 3 6v6l-5 6-3 1h-11l-2-2v-17z" fill="#FEFEFE"/>
<path transform="translate(191,232)" d="m0 0h11l4 4 1 2v10l-4 4-3 1h-12l-1-1v-18z" fill="#FEFEFE"/>
<path transform="translate(320,351)" d="m0 0h12l4 4 1 3v8l-5 5-4 1h-9l-2-1-1-7 1-11z" fill="#FEFEFE"/>
<path transform="translate(218,113)" d="m0 0 8 1 3 4 1 8-2 7-9 2-8-1-1-1v-18z" fill="#FEFEFE"/>
<path transform="translate(324,470)" d="m0 0h9l5 3 2 4-1 9-4 4-2 1h-12l-1-1v-19z" fill="#FEFEFE"/>
<path transform="translate(362,589)" d="m0 0h11l5 4 1 2v8l-2 4-4 2h-14v-19z" fill="#FEFEFE"/>
<path transform="translate(409,114)" d="m0 0h13l4 4 1 3v7l-5 5-2 1h-12l-1-1v-18z" fill="#FEFEFE"/>
<path transform="translate(925,233)" d="m0 0 3 3 9 24v4l-20 1 2-10z" fill="#FEFEFE"/>
<path transform="translate(1639,115)" d="m0 0h2l9 26 1 4-9 1h-12l3-12z" fill="#FEFEFE"/>
<path transform="translate(564,115)" d="m0 0h2l7 19 3 11-8 1h-13l7-25z" fill="#FEFEFE"/>
<path transform="translate(1429,590)" d="m0 0 3 4 4 11 5 15-6 1h-15l2-9 6-20z" fill="#FEFEFE"/>
<path transform="translate(698,115)" d="m0 0h2l6 16 4 14-9 1h-10l-2-1 3-10z" fill="#FEFEFE"/>
<path transform="translate(1065,591)" d="m0 0 2 1 8 24v4l-5 1h-14l-1-4 6-17z" fill="#FEFEFE"/>
<path transform="translate(1320,590)" d="m0 0 3 3 9 27-3 1h-17l1-8z" fill="#FEFEFE"/>
<path transform="translate(914,471)" d="m0 0h2l5 12 5 16v3h-20l2-9 4-13z" fill="#FEFEFE"/>
<path transform="translate(736,590)" d="m0 0h2l6 16 4 12v2l-5 1h-15l1-7z" fill="#FEFEFE"/>
<path transform="translate(1536,233)" d="m0 0 3 3 9 26v2l-19 1-1-4z" fill="#FEFEFE"/>
<path transform="translate(1127,116)" d="m0 0h2l7 19 3 10-20 1-1-3 7-22z" fill="#FEFEFE"/>
<path transform="translate(968,591)" d="m0 0 2 2 8 25v2l-4 1h-15l-1-5 6-16z" fill="#FEFEFE"/>
<path transform="translate(1671,233)" d="m0 0 3 4 8 25v2h-21l3-11z" fill="#FEFEFE"/>
<path transform="translate(428,353)" d="m0 0 2 2 8 24v4h-20l2-10 7-19z" fill="#FEFEFE"/>
<path transform="translate(1585,352)" d="m0 0 3 3 5 13 4 12v3h-20l1-7 5-16z" fill="#FEFEFE"/>
<path transform="translate(1171,591)" d="m0 0 3 4 8 23v2l-7 1h-13l1-8 7-21z" fill="#FEFEFE"/>
<path transform="translate(383,473)" d="m0 0h2l9 28-3 1h-17l-1-3 6-16z" fill="#FEFEFE"/>
<path transform="translate(271,353)" d="m0 0 3 4 8 25-1 1h-19l-1-2 9-26z" fill="#FEFEFE"/>
<path transform="translate(1453,354)" d="m0 0h2l9 28-1 1h-19l-1-2 5-15z" fill="#FEFEFE"/>
<path transform="translate(1462,117)" d="m0 0 3 1 9 25v2l-20 1-1-3z" fill="#FEFEFE"/>
<path transform="translate(1210,632)" d="m0 0h7l2 2-1 5-5 12-5 7h-7l2-4 5-12v-9z" fill="#A0144B"/>
<path transform="translate(1473,86)" d="m0 0 6 1-2 4-10 10-7 1 2-5 7-9z" fill="#A0144B"/>
<path transform="translate(668,86)" d="m0 0 6 1-1 4-8 7-2 3h-8l2-4 9-10z" fill="#A0144B"/>
<path transform="translate(1072,205)" d="m0 0 7 1-2 4-5 4-5 6h-7l2-4 6-9z" fill="#A0144B"/>
<path transform="translate(1272,86)" d="m0 0 7 1v3l-9 9-2 3-7-1 2-4 6-7z" fill="#A0144B"/>
<path transform="translate(441,205)" d="m0 0 5 1-2 4-6 5-3 5h-8l2-5 8-9z" fill="#A0144B"/>
<path transform="translate(768,513)" d="m0 0h7l2 2v6l-5 3-6-2v-7z" fill="#A0144B"/>
<path transform="translate(1629,631)" d="m0 0 6 1 2 2v7l-1 1h-6l-3-3 1-7z" fill="#A0144B"/>
</svg>
